<svg xmlns="http://www.w3.org/2000/svg" viewBox="0 0 119.32 131.72"><defs><style>.cls-1{fill:#fff;}</style></defs><g id="Layer_2" data-name="Layer 2"><g id="Layer_1-2" data-name="Layer 1"><path class="cls-1" d="M22.23,75.34c.09-2.49.21-5,.27-7.48a4.69,4.69,0,0,1,2.94-4.51c1-.45,1.89-1.09,2.89-1.48A5.42,5.42,0,0,0,32,57.71c1.1-4.41,6.15-6.72,10.6-5.28A8.48,8.48,0,0,1,48,62.86c-1.36,4.44-6.14,7.2-10.43,5.59-2.63-1-4,.1-5.07,2A11.77,11.77,0,0,0,31,75.38c-.29,7-.34,14-.48,21s-.59,13.93-.91,21.37c-1.76-1-3.22-1.88-4.66-2.76-6.09-3.74-12.15-7.53-18.28-11.2A6.92,6.92,0,0,1,2.93,97c.23-5.56.5-11.13.54-16.7,0-3.94,1.37-6.74,5.34-8a27.89,27.89,0,0,0,3.6-1.71,10.64,10.64,0,0,1,.25,1.77c-.23,5.9-.3,11.81-.78,17.69-.38,4.72.93,8.13,5.58,9.9a33.71,33.71,0,0,1,4,2.23ZM39.66,65a4.6,4.6,0,1,0-4.33-5A4.52,4.52,0,0,0,39.66,65Z"/><path class="cls-1" d="M40.32,111.34l.38-2.56c4.86,2.93,9.47,5.69,14.07,8.47a14.56,14.56,0,0,1,1.24.8c7.34,5.44,9.05,3.61,16.27-1.51-9.6-5.83-19.15-11.7-28.77-17.44A5,5,0,0,1,40.71,94c.07-.91,0-1.83.1-2.74.14-2.4,0-4.46-1.82-6.57-3-3.57-2-8.78,1.85-11.65a8.49,8.49,0,0,1,11.44,1.55A8.21,8.21,0,0,1,51,86.39c-1.91,1.39-2,2.87-1.05,4.42a13,13,0,0,0,3.87,4.36c8.74,5.42,17.62,10.63,26.45,15.9l9.6,6.07-2,1.6C80.24,122.82,72.6,126.84,65,131a4.17,4.17,0,0,1-4.75-.05c-3.93-2.44-7.94-4.74-11.92-7.1a34.58,34.58,0,0,0-3.92-2.5c-3.39-1.59-4.75-4.12-4.14-7.79A13.69,13.69,0,0,0,40.32,111.34Zm5.49-26.71a4.65,4.65,0,0,0,0-9.3,4.63,4.63,0,0,0-4.72,4.5A4.86,4.86,0,0,0,45.81,84.63Z"/><path class="cls-1" d="M50.5,53c-2.71-1.39-4.66-3.35-5.24-6.5-.11-.56-.9-1.4-1.4-1.41-2-.06-4.34-.46-6,.36-7.93,3.92-15.68,8.2-23.5,12.35L0,64.94C0,59.66,0,54.38,0,49.1c0-3.41.39-6.82.32-10.23C.27,35.23,2.1,33,5.11,31.44c3.92-2,7.87-4,11.8-6a.61.61,0,0,0,.24-.07c5.47-4.08,10.32-3,14.78,2.17-.58.34-1.3.8-2.05,1.19-5.25,2.68-10.46,5.44-15.78,8-3.75,1.79-5.58,4.5-5.2,8.7.14,1.53,0,3.09,0,5.07,2.78-1.4,5.21-2.6,7.62-3.85,7.29-3.79,14.64-7.5,21.84-11.46,2.69-1.49,4.92-1.58,7.29.38,1.81,1.5,3.54,2.32,6.23,1.36,3.44-1.21,6.55.3,8.64,3.35a8,8,0,0,1,.32,8.94,8,8,0,0,1-8.42,4.13C51.8,53.31,51.15,53.13,50.5,53Zm7.82-8a4.84,4.84,0,0,0-4.6-4.68,4.89,4.89,0,0,0-4.78,4.77A4.69,4.69,0,0,0,58.32,45Z"/><path class="cls-1" d="M71.92,94.32a5.73,5.73,0,0,0-5.34-1.57,8,8,0,0,1-9-5.1C56,83.7,57.3,80,61.39,76.9c6.8-2.2,11.23.44,12.53,7.34.14.73,1.22,1.87,1.8,1.83,2.33-.16,4.9-.18,6.9-1.2,5.06-2.58,9.85-5.66,14.76-8.54l21.94-12.06V79c0,4-.08,8,0,12,0,3.12-1.09,5.4-4,6.84-2.67,1.32-5.24,2.85-7.85,4.28-2.43,1.41-4.92,2.74-7.29,4.25-2.76,1.75-5.37,1.88-8-.17-1.29-1-2.73-1.82-4.54-3l17.79-9.9c5.79-2.63,5.66-5.67,4.5-13.83l-9,5.33c-5.42,3-11,5.75-16.21,9.06C80.32,96.57,76.32,98.12,71.92,94.32Zm-6.53-5.2a4.65,4.65,0,0,0-.11-9.29,4.7,4.7,0,0,0-4.48,4.73A4.52,4.52,0,0,0,65.39,89.12Z"/><path class="cls-1" d="M81.77,47.37c1.31,5.58.39,8.72-3.22,11a8.27,8.27,0,0,1-11-1.78A8.43,8.43,0,0,1,68,45.38c2.57-2.72,2.7-4.88-.32-7.35A121.78,121.78,0,0,0,57.4,31q-13-8.55-26-17.08a5.26,5.26,0,0,1-.7-.76c1.55-.81,3-1.57,4.43-2.31C41.52,7.57,48,4.36,54.38,1a6.73,6.73,0,0,1,7.69.45c1.21.87,2.5,1.61,3.76,2.41,3.24,2.16,6.36,4.51,9.74,6.42,3.62,2,5.57,4.56,4.46,8.88a25.82,25.82,0,0,0-.33,4,15.79,15.79,0,0,1-1.78-.85c-5.41-3.54-10.82-7.08-16.19-10.68a7.29,7.29,0,0,0-8.82-.07c-1.51,1-3.09,1.87-4.81,2.91C56.47,20,64.48,25.61,72.87,30.59,77.26,33.2,80.1,36,79,41.34c-.9,2.41.68,3.74,2.21,5.1ZM74,55.83a4.75,4.75,0,0,0,4.75-4.48A4.68,4.68,0,1,0,74,55.83Z"/><path class="cls-1" d="M92.36,67.77a7,7,0,0,0-5.1,5.3c-1.11,4.13-5.88,6.24-10.05,5A8.39,8.39,0,0,1,71.38,67.9a8.51,8.51,0,0,1,9.21-6.26c1.41.14,2.83,1.65,4.39,0a8.12,8.12,0,0,0,2.37-6.3q0-19.74,0-39.48V12.75l14.93,8.57c3,1.73,6.07,3.46,9.12,5.15a5.66,5.66,0,0,1,3.24,5.24c0,6.81-.19,13.62-.26,20.43a4.86,4.86,0,0,1-3,4.47l-5.51,2.86c0-6.8-.2-13.28.06-19.73.19-4.68-1.28-7.91-5.85-9.51a36.26,36.26,0,0,1-4.06-2.06c0,6,0,11.66,0,17.3s-.07,11.16.12,16.74C96.28,65.18,94.45,66.48,92.36,67.77ZM79.64,74.66A5,5,0,0,0,84.29,70a4.87,4.87,0,0,0-4.6-4.67,4.77,4.77,0,0,0-4.76,4.76A4.89,4.89,0,0,0,79.64,74.66Z"/></g></g></svg>